# xmcd CD database file
#
# Track frame offsets:
#	150
#	24675
#	51024
#	83979
#	111019
#	147320
#
# Disc length: 2348 seconds
#
# Revision: 0
# Processed by: cddbd v1.5.2PL0 Copyright (c) Steve Scherf et al.
# Submitted via: CDex 1.70beta2
#
DISCID=4b092a06
DTITLE=Full Vibe - Creation
DYEAR=2007
DGENRE=Jazz
TTITLE0=Lake
TTITLE1=Paper
TTITLE2=Fartire Ground
TTITLE3=Chain
TTITLE4=Time
TTITLE5=Live with Her - Live
EXTD=YEAR: 2007
EXTT0=
EXTT1=
EXTT2=
EXTT3=
EXTT4=
EXTT5=
PLAYORDER=
